<?xml version="1.0" encoding="utf-8"?><svg xmlns="http://www.w3.org/2000/svg" xmlns:xlink="http://www.w3.org/1999/xlink"><symbol viewBox="0 0 42.084 47.041" id="android-logo"><path d="M34.144 14.009H7.945c-.009.11-.018.22-.018.333v18.754c0 1.926 1.457 3.491 3.316 3.628v7.433a2.884 2.884 0 1 0 5.77 0v-7.419h8.058v7.419a2.885 2.885 0 1 0 5.771 0v-7.433c1.858-.137 3.315-1.702 3.315-3.628V14.342c0-.113-.004-.223-.013-.333zm-31.258 1.67a2.886 2.886 0 0 1 2.886 2.885v12.378a2.885 2.885 0 1 1-5.772 0V18.564a2.885 2.885 0 0 1 2.886-2.885zm36.312 0a2.885 2.885 0 0 1 2.886 2.885v12.378a2.885 2.885 0 0 1-2.886 2.886 2.884 2.884 0 0 1-2.885-2.886V18.564a2.884 2.884 0 0 1 2.885-2.885zM8.03 11.967h26.025c-.039-2.783-1.234-5.322-3.186-7.275L33.315.457a.304.304 0 1 0-.527-.304L30.416 4.26c-2.052-1.853-4.821-3.101-7.924-3.4h-2.9c-3.102.299-5.872 1.547-7.924 3.4L9.296.152a.304.304 0 0 0-.526.304l2.445 4.235c-1.95 1.954-3.147 4.493-3.185 7.276zm17.293-5.163c-.002-.805.664-1.46 1.489-1.462.825-.002 1.494.648 1.497 1.454v.008c.002.805-.664 1.46-1.489 1.462-.824.002-1.494-.649-1.497-1.454v-.008zm-11.143 0c-.001-.805.665-1.46 1.489-1.462.824-.002 1.494.648 1.497 1.454v.008c.002.805-.664 1.46-1.488 1.462-.825.002-1.495-.649-1.498-1.454v-.008z"/></symbol><symbol viewBox="0 0 46.21 56.753" id="apple-logo"><path d="M38.593 30.15c.081 8.59 7.535 11.447 7.617 11.483-.062.202-1.19 4.073-3.927 8.072-2.365 3.457-4.82 6.901-8.688 6.973-3.799.07-5.021-2.253-9.365-2.253s-5.702 2.182-9.298 2.323c-3.733.142-6.576-3.739-8.961-7.184-4.875-7.046-8.598-19.91-3.597-28.593 2.484-4.313 6.925-7.043 11.743-7.114 3.666-.069 7.126 2.466 9.366 2.466 2.241 0 6.444-3.049 10.865-2.601 1.85.077 7.044.747 10.38 5.629-.269.168-6.197 3.62-6.135 10.799m-7.14-21.088c1.982-2.4 3.316-5.739 2.952-9.062-2.857.115-6.312 1.904-8.36 4.302-1.837 2.123-3.445 5.521-3.011 8.778 3.184.246 6.436-1.619 8.419-4.018"/></symbol><symbol viewBox="0 0 8.673 18.944" id="facebook"><path d="M6.275 3.357h2.398V0H5.795C2.656.181 1.54 2.387 1.948 6.115H0v3.517h1.958v9.312h3.837V9.632h2.857V6.115H5.786c-.021-1.045-.036-2.406.489-2.758z"/></symbol><symbol viewBox="0 0 25.988 29.922" id="glukhanko"><path d="M0 0h25.988v29.922l-12.994-4.811L0 29.922V0zm20.154 17.895c-.241 0-.509-.006-.801-.018-.293-.014-.508-.051-.645-.116a1.03 1.03 0 0 1-.5-.469c-.107-.21-.162-.492-.162-.854 0-.394.018-1.211.055-2.457.035-1.244.054-2.319.054-3.226 0-.858-.146-1.556-.439-2.088a3.052 3.052 0 0 0-1.186-1.223 5.039 5.039 0 0 0-1.758-.572 15.198 15.198 0 0 0-2.143-.139 9.35 9.35 0 0 0-1.83.199 7.412 7.412 0 0 0-1.746.56 4.395 4.395 0 0 0-1.306.885c-.357.357-.536.76-.536 1.209 0 .521.173.946.519 1.271.346.323.857.486 1.533.486.476 0 .827-.043 1.057-.132.229-.089.437-.213.622-.374.138-.12.242-.283.314-.487.072-.205.109-.375.109-.511 0-.306-.057-.622-.169-.952a4.77 4.77 0 0 1-.206-.734c.145-.104.335-.207.572-.308.237-.101.533-.151.886-.151.393 0 .71.089.952.265.241.177.417.393.53.651.104.225.172.501.205.831.032.327.048.593.048.794v1.155c-.467.224-1.207.48-2.22.767-1.013.285-1.881.56-2.604.826-.378.143-.726.3-1.043.471-.317.169-.597.38-.838.639-.265.281-.47.605-.615.969-.145.366-.217.811-.217 1.333 0 .909.329 1.637.989 2.189.658.551 1.455.825 2.388.825.627 0 1.115-.044 1.465-.132.35-.089.714-.223 1.091-.396.29-.138.561-.303.814-.494.253-.193.517-.426.791-.699h.072c.168.546.484.965.949 1.259.465.293 1.19.438 2.176.438.536 0 1.045-.064 1.525-.192s.896-.269 1.25-.421v-.877zm-6.021-1.302a3.134 3.134 0 0 1-.754.668c-.286.183-.65.271-1.094.271-.419 0-.771-.139-1.057-.42-.286-.282-.429-.738-.429-1.364 0-.475.083-.887.253-1.238.169-.349.403-.638.701-.862a5.406 5.406 0 0 1 1.087-.622c.443-.197.89-.372 1.342-.525l-.049 4.092z"/></symbol><symbol viewBox="0 0 26.096 33.803" id="htmlacademy"><path d="M13.047 0L0 1.456v24.475l13.047 7.835v.037l13.049-7.872V1.557L13.047 0zm10.99 24.745l-10.989 6.622v-7.385l-6.369-2.858v-.021l6.373-2.816v-.02h.001v.011l6.366 2.814v-.006l.01.006v-1.234l-6.366-2.813-.003.003-.007-.003v.011h-.001v-.003L6.679 19.87v-1.235l5.848-2.584-1.385-.622-4.463 1.973v-1.234l3.077-1.36-1.385-.622-1.692.748V13.7l.306-.135-3.73-1.674 9.793-4.248V2.084l10.989 1.321v21.34z"/><path d="M19.428 17.389l-4.47-1.975-1.388.621 5.858 2.589zm0-2.468l-1.694-.749-1.388.621 3.082 1.362z"/></symbol><symbol viewBox="0 0 49.945 24.007" id="menu-burger"><path d="M1.137 0C.51 0 0 .428 0 1.01v1.981c0 .558.494 1.01 1.138 1.01h47.671c.628 0 1.138-.428 1.138-1.01V1.01c0-.558-.494-1.01-1.138-1.01H1.137zm0 10.003c-.627 0-1.137.428-1.137 1.01v1.98c0 .557.494 1.01 1.138 1.01h47.671c.628 0 1.138-.428 1.138-1.01v-1.98c0-.558-.494-1.01-1.138-1.01H1.137zm0 10.002C.51 20.005 0 20.434 0 21.016v1.981c0 .557.494 1.01 1.138 1.01h47.671c.628 0 1.138-.428 1.138-1.01v-1.981c0-.558-.494-1.011-1.138-1.011H1.137z"/><path d="M1.137 0C.51 0 0 .428 0 1.01v1.981c0 .558.494 1.01 1.138 1.01h47.671c.628 0 1.138-.428 1.138-1.01V1.01c0-.558-.494-1.01-1.138-1.01H1.137zm0 10.003c-.627 0-1.137.428-1.137 1.01v1.98c0 .557.494 1.01 1.138 1.01h47.671c.628 0 1.138-.428 1.138-1.01v-1.98c0-.558-.494-1.01-1.138-1.01H1.137zm0 10.002C.51 20.005 0 20.434 0 21.016v1.981c0 .557.494 1.01 1.138 1.01h47.671c.628 0 1.138-.428 1.138-1.01v-1.981c0-.558-.494-1.011-1.138-1.011H1.137z"/></symbol><symbol viewBox="0 0 23.866 23.866" id="menu-cross"><path d="M15.087 11.933l8.56-8.559a.75.75 0 0 0 0-1.061L21.554.22a.75.75 0 0 0-1.061 0l-8.56 8.56L3.373.22a.771.771 0 0 0-1.061 0L.22 2.313a.75.75 0 0 0 0 1.061l8.56 8.559-8.56 8.559a.75.75 0 0 0 0 1.061l2.093 2.094a.749.749 0 0 0 1.06 0l8.561-8.56 8.56 8.56a.749.749 0 0 0 1.06 0l2.093-2.094a.75.75 0 0 0 0-1.061l-8.56-8.559z"/></symbol><symbol viewBox="0 0 43.922 41.992" id="microsoft-logo"><path fill="#F05423" d="M20.874 19.953H0V0h20.874v19.953z"/><path fill="#84C441" d="M43.922 19.953H23.049V0h20.873v19.953z"/><path fill="#2DABE2" d="M20.873 41.992H0V22.04h20.873v19.952z"/><path fill="#F9BC15" d="M43.922 41.992H23.049V22.04h20.873v19.952z"/></symbol><symbol viewBox="0 0 26.752 26.752" id="no"><path d="M15.497 13.376L26.312 2.562A1.5 1.5 0 1 0 24.191.441L13.376 11.255 2.562.439A1.5 1.5 0 1 0 .441 2.56l10.814 10.815L.439 24.19a1.5 1.5 0 1 0 2.122 2.121l10.815-10.814L24.19 26.312c.293.293.677.439 1.061.439s.768-.146 1.061-.439a1.5 1.5 0 0 0 0-2.121L15.497 13.376z"/></symbol><symbol viewBox="0 0 78.673 63.788" id="quotes"><path d="M72.354 39.632c-2.797-2.401-6.636-3.604-11.518-3.604h-5.67c.473-4.081 1.278-7.397 2.421-9.948 1.141-2.551 2.854-5.044 5.139-7.477 2.363-2.51 4.685-4.531 6.97-6.063 2.283-1.53 5.274-3.356 8.978-5.477L74.42 0c-2.441 1.495-5.474 3.42-9.096 5.779-3.623 2.359-7.048 5.228-10.276 8.607-3.151 3.302-5.83 7.056-8.033 11.261-2.206 4.204-3.308 8.861-3.308 13.97 0 7.232 1.456 13.07 4.371 17.511 2.913 4.44 7.755 6.661 14.529 6.661 4.33 0 7.737-1.436 10.218-4.311s3.721-5.967 3.721-9.273c0-4.646-1.399-8.171-4.192-10.573zM19.019 18.603c2.362-2.51 4.685-4.531 6.97-6.063 2.283-1.53 5.274-3.356 8.978-5.477L30.713 0c-2.441 1.495-5.475 3.42-9.095 5.779-3.624 2.359-7.05 5.228-10.278 8.607-3.149 3.302-5.828 7.056-8.032 11.261C1.103 29.851 0 34.508 0 39.616c0 7.232 1.457 13.07 4.371 17.511 2.912 4.44 7.756 6.661 14.529 6.661 4.33 0 7.737-1.436 10.218-4.311s3.722-5.967 3.722-9.273c0-4.646-1.399-8.17-4.194-10.572-2.796-2.401-6.635-3.604-11.517-3.604h-5.671c.473-4.081 1.3-7.416 2.481-10.007 1.181-2.589 2.873-5.063 5.08-7.418z"/></symbol><symbol viewBox="0 0 298.001 345.097" id="timer-3"><path d="M293.057 157.98a148.438 148.438 0 0 0-28.273-55.688l8.567-8.563c6.074-6.077 6.074-15.928 0-21.999-3.334-3.34-7.78-4.656-12.129-4.333-3.596.254-7.146 1.596-9.866 4.333l-8.563 8.56c-9.083-7.354-19.081-13.552-29.734-18.627-9.617-4.558-19.751-8.195-30.338-10.669-.089-.016-.205-.016-.311-.038-4.587-1.065-9.204-1.985-13.962-2.613v-9.439h6.879c10.737 0 19.446-8.709 19.446-19.474 0-10.724-8.709-19.43-19.446-19.43h-53.832c-1.713 0-3.356.288-4.96.697 0 0-.009.029-.02.029-8.326 2.202-14.463 9.715-14.463 18.704 0 10.765 8.709 19.474 19.442 19.474h8.062v9.439C79.47 54.876 37.337 86.339 15.7 129.791c-4.32 8.658-7.893 17.745-10.454 27.238A148.006 148.006 0 0 0 0 196.089c0 64.417 40.952 119.159 98.227 139.946 15.871 5.734 32.922 9.062 50.772 9.062 7.435 0 14.736-.559 21.853-1.633.762-.096 1.484-.321 2.251-.451 20.966-3.432 40.528-11.17 57.596-22.392 23.571-15.496 42.378-37.464 54.081-63.389 8.424-18.701 13.222-39.326 13.222-61.144a148.896 148.896 0 0 0-4.945-38.108zm-66.209 115.963c-14.194 14.189-31.581 23.877-50.54 28.735-6.501 1.626-13.258 2.51-20.067 2.966-.971.061-1.881.23-2.845.241-1.476.072-2.916.298-4.396.298-4.044 0-8.062-.26-12.034-.688-24.859-2.698-47.885-13.609-65.823-31.552-20.794-20.793-32.258-48.454-32.258-77.854 0-2.328.198-4.599.334-6.896 1.659-26.815 12.766-51.821 31.924-70.969 2.383-2.372 4.875-4.595 7.421-6.736l.016-.013c19.75-16.48 44.379-25.5 70.421-25.5 4.758 0 9.438.327 14.051.929a109.883 109.883 0 0 1 40.743 13.759c.136.083.286.184.409.279 8.15 4.745 15.798 10.447 22.646 17.282 1.608 1.621 3.067 3.334 4.549 5.031.054.054.104.12.167.184 3.025 3.447 5.729 7.142 8.292 10.888 1.629 2.442 3.264 4.894 4.694 7.431a108.885 108.885 0 0 1 14.386 51.07c.038 1.088.152 2.147.152 3.261-.002 29.4-11.445 57.061-32.242 77.854z"/></symbol><symbol viewBox="0 0 17.5 14.663" id="twitter"><path fill-rule="evenodd" clip-rule="evenodd" d="M11.283.153c1.736-.485 3.074.263 3.685 1.151.694-.226 1.372-.47 2.072-.691-.004.841-.538 1.478-.883 1.727.704.166 1.343-.48 1.343-.48-.175.976-1.035 1.746-1.611 1.977-.239 6.592-3.272 10.956-10.382 10.823h-.46c-.422 0-4.29-.45-5.047-1.843 2.341.192 4.011-.412 4.835-1.15-.989-.293-2.761-.464-3.07-2.881.362.105.583.223 1.228.117C1.757 8.067.385 7.366.461 5.218c.294.32 1.1.523 1.381.461C1.117 5.444-.188 2.398.921.843 2.794 2.654 4.769 4.364 8.29 4.528 8.506 2.288 9.461.787 11.283.153z"/></symbol><symbol viewBox="0 0 30.375 21.688" id="yes"><path d="M29.936.439a1.5 1.5 0 0 0-2.121 0L10.188 18.066l-7.627-7.627A1.5 1.5 0 1 0 .44 12.56l8.688 8.688c.293.293.677.439 1.061.439s.768-.146 1.061-.439L29.936 2.561a1.502 1.502 0 0 0 0-2.122z"/></symbol><symbol viewBox="0 0 14.64 13.96" id="youtube"><path d="M1.775 13.78C.799 14.257 0 13.758 0 12.671V1.29C0 .202.799-.295 1.775.181l12.133 5.932c.975.478.975 1.258 0 1.736L1.775 13.78z"/></symbol></svg>